<svg width="32" height="32" viewBox="0 0 32 32" fill="none" xmlns="http://www.w3.org/2000/svg">
<path d="M25.3333 6.66667H6.66667C5.95942 6.66667 5.28115 6.94762 4.78105 7.44772C4.28095 7.94782 4 8.62609 4 9.33334V22.6667C4 23.3739 4.28095 24.0522 4.78105 24.5523C5.28115 25.0524 5.95942 25.3333 6.66667 25.3333H25.3333C26.0406 25.3333 26.7189 25.0524 27.219 24.5523C27.719 24.0522 28 23.3739 28 22.6667V9.33334C28 8.62609 27.719 7.94782 27.219 7.44772C26.7189 6.94762 26.0406 6.66667 25.3333 6.66667Z" stroke="#9A0907" stroke-width="2" stroke-linecap="round" stroke-linejoin="round"/>
<path d="M4 9.33333L16 17.3333L28 9.33333" stroke="#9A0907" stroke-width="2" stroke-linecap="round" stroke-linejoin="round"/>
</svg>
