<svg width="32" height="32" viewBox="0 0 32 32" fill="none" xmlns="http://www.w3.org/2000/svg">
<path d="M12 16C10.9452 16 9.91402 16.3128 9.03696 16.8988C8.1599 17.4849 7.47631 18.3178 7.07264 19.2924C6.66897 20.2669 6.56336 21.3393 6.76915 22.3738C6.97493 23.4084 7.48288 24.3587 8.22876 25.1046C8.97464 25.8504 9.92495 26.3584 10.9595 26.5642C11.9941 26.77 13.0664 26.6644 14.041 26.2607C15.0155 25.857 15.8485 25.1734 16.4345 24.2964C17.0205 23.4193 17.3333 22.3882 17.3333 21.3333V5.33333C17.3333 7.10144 18.0357 8.79714 19.286 10.0474C20.5362 11.2976 22.2319 12 24 12" stroke="#9A0907" stroke-width="2" stroke-linecap="round" stroke-linejoin="round"/>
</svg>
