<svg width="32" height="32" viewBox="0 0 32 32" fill="none" xmlns="http://www.w3.org/2000/svg">
<path d="M16 18.6667C16.5253 18.6667 17.0454 18.5632 17.5307 18.3622C18.016 18.1612 18.457 17.8665 18.8284 17.4951C19.1999 17.1237 19.4945 16.6827 19.6955 16.1974C19.8965 15.7121 20 15.192 20 14.6667C20 14.1414 19.8965 13.6212 19.6955 13.1359C19.4945 12.6506 19.1999 12.2097 18.8284 11.8382C18.457 11.4668 18.016 11.1722 17.5307 10.9711C17.0454 10.7701 16.5253 10.6667 16 10.6667C14.9391 10.6667 13.9217 11.0881 13.1716 11.8382C12.4214 12.5884 12 13.6058 12 14.6667C12 15.7275 12.4214 16.7449 13.1716 17.4951C13.9217 18.2452 14.9391 18.6667 16 18.6667Z" stroke="#9A0907" stroke-width="2" stroke-linecap="round" stroke-linejoin="round"/>
<path d="M23.5427 22.2093L17.8853 27.8667C17.3853 28.3662 16.7074 28.6468 16.0007 28.6468C15.2939 28.6468 14.616 28.3662 14.116 27.8667L8.45733 22.2093C6.96563 20.7175 5.94978 18.8169 5.53825 16.7478C5.12672 14.6787 5.33799 12.534 6.14534 10.585C6.95269 8.63593 8.31986 6.97005 10.074 5.79801C11.8281 4.62596 13.8904 4.00039 16 4.00039C18.1096 4.00039 20.1719 4.62596 21.926 5.79801C23.6801 6.97005 25.0473 8.63593 25.8547 10.585C26.662 12.534 26.8733 14.6787 26.4617 16.7478C26.0502 18.8169 25.0344 20.7175 23.5427 22.2093Z" stroke="#9A0907" stroke-width="2" stroke-linecap="round" stroke-linejoin="round"/>
</svg>
