<svg width="32" height="32" viewBox="0 0 32 32" fill="none" xmlns="http://www.w3.org/2000/svg">
<path d="M21.3333 5.33334H10.6667C9.25218 5.33334 7.89563 5.89524 6.89543 6.89543C5.89524 7.89563 5.33334 9.25218 5.33334 10.6667V21.3333C5.33334 22.7478 5.89524 24.1044 6.89543 25.1046C7.89563 26.1048 9.25218 26.6667 10.6667 26.6667H21.3333C22.7478 26.6667 24.1044 26.1048 25.1046 25.1046C26.1048 24.1044 26.6667 22.7478 26.6667 21.3333V10.6667C26.6667 9.25218 26.1048 7.89563 25.1046 6.89543C24.1044 5.89524 22.7478 5.33334 21.3333 5.33334Z" stroke="#9A0907" stroke-width="2" stroke-linecap="round" stroke-linejoin="round"/>
<path d="M16 20C17.0609 20 18.0783 19.5786 18.8284 18.8284C19.5786 18.0783 20 17.0609 20 16C20 14.9391 19.5786 13.9217 18.8284 13.1716C18.0783 12.4214 17.0609 12 16 12C14.9391 12 13.9217 12.4214 13.1716 13.1716C12.4214 13.9217 12 14.9391 12 16C12 17.0609 12.4214 18.0783 13.1716 18.8284C13.9217 19.5786 14.9391 20 16 20Z" stroke="#9A0907" stroke-width="2" stroke-linecap="round" stroke-linejoin="round"/>
</svg>
