<svg width="800" height="734" viewBox="0 0 800 734" fill="none" xmlns="http://www.w3.org/2000/svg">
<path opacity="0.04" fill-rule="evenodd" clip-rule="evenodd" d="M109.319 5.1679C102.574 13.3234 99.0433 73.8535 103.125 111.43C109.751 172.459 114.523 163.774 61.2019 187.724C21.5006 205.561 13.8951 210.209 8.06312 220.2C1.53038 231.397 1.21819 237.694 0.235121 378.446C-0.326157 459.069 0.152092 531.499 1.30122 539.401C5.49918 568.292 4.02457 567.496 263.242 681.467C351.373 720.216 384.398 733.252 394.425 733.252C407.491 733.252 419.098 728.294 728.183 590.71C758.572 577.184 773.145 568.782 778.542 561.679L786.137 551.685L787.257 391.772C788.545 207.61 790.003 216.978 757.688 201.643C748.08 197.083 740.219 192.785 740.219 192.092C740.219 191.399 749.741 181.281 761.378 169.608C784.204 146.71 800 119.808 800 103.824C800 88.4922 792.082 86.3 764.992 94.1257C731.175 103.894 696.081 103.351 657.19 92.4533C615.748 80.843 581.487 80.5665 550.341 91.5938L528.179 99.4428L468.972 72.5143C421.403 50.8795 406.823 45.6523 394.817 45.9155C383.661 46.1621 363.678 53.518 316.019 74.9196C280.901 90.6943 249.901 103.597 247.134 103.597C244.365 103.597 235.361 98.4367 227.124 92.1302C218.888 85.8236 198.177 72.4143 181.106 62.3365C148.077 42.8372 141.81 36.1576 135.908 14.1796C132.654 2.05294 131.01 0.320557 122.76 0.320557C117.572 0.320557 111.524 2.50269 109.319 5.1679ZM138.143 54.4209C141.309 57.9289 153.65 66.1744 165.57 72.7442C207.689 95.9647 264.195 141.983 274.248 161.249C277.148 166.806 279.263 166.256 302.06 154.033C335.278 136.216 357.431 130.249 390.37 130.249C418.059 130.249 452.13 138.511 465.611 148.493C471.287 152.697 471.337 153.99 466.441 170.527C458.032 198.928 460.47 203.819 471.583 180.835C477.584 168.425 489.278 152.367 500.101 141.68C540.62 101.682 588.372 91.3906 653.925 108.535C694.782 119.219 728.366 120.355 759.684 112.113C771.302 109.058 781.538 107.289 782.431 108.181C783.321 109.078 779.834 117.583 774.679 127.088C762.265 149.965 732.5 176.474 701.507 192.255C675.496 205.498 663.825 207.24 635.602 202.09C625.768 200.294 615.104 201.767 594.542 207.767C561.536 217.391 564.844 220.2 609.189 220.2C636.598 220.2 640.763 220.976 643.789 226.643C645.678 230.188 647.226 235.961 647.226 239.473C647.226 248.118 632.503 275.406 618.677 292.387C609.587 303.554 607.372 309.178 607.372 321.091V335.91L588.275 342.963C577.774 346.844 564.695 353.717 559.215 358.241L549.251 366.463L570.407 358.001C595.11 348.123 629.039 346.594 647.927 354.51C666.034 362.099 685.426 381.588 694.144 400.961C700.8 415.753 702.002 423.778 702.012 453.405C702.025 485.481 701.235 489.892 692.507 506.529C671.799 545.998 626.881 581.905 568.727 605.475C543.605 615.66 483.525 633.307 473.98 633.307C472.32 633.307 474.754 627.713 479.387 620.873C492.685 601.241 489.404 601.364 467.052 621.343C442.825 642.995 406.248 662.511 384.528 665.376C363.229 668.184 335.165 659.442 320.29 645.37C307.115 632.907 304.71 634.283 315.541 648.095L322.618 657.117L298.104 654.885C239.283 649.531 200.857 634.299 167.712 603.2C132.388 570.051 114.796 527.744 114.404 474.993C114.198 447.628 115.134 442.991 124.895 423.102C131.78 409.07 142.65 394.528 155.304 382.421L174.999 363.578L173.175 330.353C171.95 308.038 172.763 292.07 175.653 281.716C180.226 265.328 200.532 231.237 214.776 216.036C229.243 200.594 215.806 205.665 199.851 221.669C191.511 230.035 183.119 235.698 180.535 234.705C178.024 233.739 174.235 224.458 172.109 214.08C163.667 172.809 138.678 106.229 133.557 111.366C132.587 112.336 134.753 121.108 138.366 130.852C146.337 152.344 160.558 213.1 158.177 215.486C155.148 218.527 136.061 184.223 128.874 162.818C119.329 134.404 114.477 87.2295 117.433 51.6324L119.874 22.2252L126.134 35.1348C129.575 42.2376 134.982 50.9161 138.143 54.4209ZM462.449 75.8791C514.562 98.7799 527.661 106.929 512.357 106.929C509.633 106.929 483.326 96.4345 453.897 83.6082C424.468 70.7819 398.058 60.2877 395.209 60.2877C392.359 60.2877 360.36 73.2206 324.096 89.0319C275.756 110.107 257.184 116.787 254.477 114.071C252.448 112.036 251.435 109.844 252.229 109.197C260.117 102.768 385.763 50.6163 393.708 50.4764C399.878 50.3698 428.288 60.8673 462.449 75.8791ZM444.07 100.339C495.053 122.344 493.964 121.587 486.578 129.773C480.663 136.329 480.543 136.323 464.801 128.39C444.937 118.382 411.599 110.374 389.536 110.31C367.052 110.244 327.151 120.754 302.492 133.241C285.075 142.063 282.003 142.719 278.417 138.385C276.158 135.656 274.949 132.778 275.733 131.992C281.455 126.248 385.488 83.948 394.252 83.7981C400.529 83.6915 422.067 90.8409 444.07 100.339ZM126.948 129.416C127.825 132.621 129.498 140.93 130.671 147.876C133.245 163.171 145.148 191.909 147.805 189.247C150.412 186.632 131.465 123.61 128.07 123.596C126.576 123.59 126.071 126.211 126.948 129.416ZM735.237 147.243C727.931 154.699 712.524 166.093 701.002 172.569C682.969 182.704 678.14 184.036 666.316 182.141C652.653 179.949 652.613 179.972 658.721 186.742C666.652 195.53 668.239 195.394 692.729 183.77C712.919 174.188 740.817 151.574 747.193 139.621C751.81 130.972 750.159 132.025 735.237 147.243ZM114.012 179.685C112.278 181.225 97.406 188.157 80.9662 195.094C64.5264 202.027 45.3566 210.602 38.3688 214.147C15.7948 225.597 15.8911 224.784 16.9373 395.167L17.8639 546.564L27.8274 556.086C33.6594 561.663 61.1986 575.625 94.2509 589.767C142.312 610.333 188.13 635.192 184.564 638.774C183.999 639.337 147.011 623.579 102.361 603.756C32.869 572.9 20.0957 566.11 13.6194 556.572L6.05714 545.428L6.9771 386.219L7.90039 227.009L16.2033 218.724C26.8942 208.05 109.791 170.157 114.012 174.012C116.005 175.831 116.005 177.92 114.012 179.685ZM580.783 176.67C562.689 182.191 550.686 190.926 544.512 203.063C533.486 224.747 534.041 242.061 546.226 256.59C557.544 270.086 562.53 269.726 554.197 256.014C546.169 242.804 545.758 226.76 553.084 212.537C562.662 193.941 580.65 184.446 612.228 181.315C623.257 180.222 634.523 178.073 637.263 176.544C643.55 173.032 592.33 173.149 580.783 176.67ZM155.965 237.983L168.868 249.064L162.278 267.864C157.347 281.943 155.693 295.299 155.693 321.051V355.439L142.232 368.608C113.152 397.06 95.9115 436.591 95.9115 474.824C95.9115 499.86 105.596 539.785 117.283 562.915C121.969 572.19 125.802 580.532 125.802 581.448C125.802 584.247 61.6768 553.447 54.8584 547.374C51.348 544.249 45.7319 535.693 42.3775 528.364C36.8112 516.204 36.2698 504.261 36.2233 391.772C36.1901 320.651 37.5518 263.573 39.4416 256.846C44.9713 237.174 55.8282 227.659 90.5976 212.031L123.481 197.249L133.271 212.078C138.655 220.233 148.868 231.89 155.965 237.983ZM753.733 205.325C784.646 221.039 783.368 213.174 783.381 387.715C783.394 551.525 782.919 556.545 766.41 567.006C762.052 569.768 736.067 581.931 708.668 594.038C681.268 606.145 601.128 641.672 530.58 672.985C460.032 704.301 398.872 729.92 394.674 729.92C387.859 729.92 244.461 668.9 237.619 663.09C228.087 654.995 293.525 676.52 339.722 696.675L394.8 720.705L448.776 697.335C547.342 654.651 741.305 569.801 752.617 564.418C773.637 554.413 773.431 556.132 773.417 389.44C773.404 216.669 774.749 224.867 744.091 210.465C727.133 202.496 722.145 196.879 732.026 196.879C734.829 196.879 744.596 200.681 753.733 205.325ZM225.088 222.435C210.621 236.448 198.376 252.146 191.956 264.912C181.976 284.764 181.797 285.984 182.84 326.815L183.903 368.462L168.283 382.904C131.418 416.992 117.639 467.004 130.923 518.503C141.74 560.43 169.369 592.369 215.766 616.592C240.502 629.509 300.423 649.148 304.033 645.527C305.042 644.514 302.847 639.427 299.154 634.226C293.96 626.903 288.018 623.848 272.897 620.717C226.248 611.052 170.704 573.053 151.674 537.789C125.204 488.739 135.54 426.257 176.995 384.673L195.045 366.566L193.232 348.959C189.024 308.058 207.666 252.879 237.54 217.801C245.779 208.127 251.512 200.211 250.28 200.211C249.047 200.211 237.712 210.212 225.088 222.435ZM712.663 217.538C730.418 225.187 741.029 234.612 747.177 248.188C752.856 260.734 753.364 272.211 753.43 389.38C753.51 527.998 753.251 530.183 734.815 547.131C726.297 554.96 634.283 598.113 631.68 595.501C631.102 594.921 637.801 589.784 646.565 584.087C714.347 540.028 740.355 455.884 707.12 388.164C692.344 358.058 668.232 339.768 633.111 332.025C619.996 329.133 621.367 320.025 638.571 295.755C656.29 270.762 663.825 253.328 663.849 237.284C663.865 225.843 664.709 224.911 679.624 219.853C700.102 212.914 701.67 212.804 712.663 217.538ZM574.21 229.165C574.323 235.108 579.776 239.463 592.427 243.714C614.493 251.13 615.708 253.821 603.715 268.74C587.737 288.616 563.503 344.212 572.862 339.518C574.489 338.702 580.497 336.176 586.213 333.901C595.303 330.286 596.867 327.758 598.727 313.699C600.188 302.641 605.539 290.478 615.861 274.737C625.619 259.855 630.534 248.934 629.916 243.52C629.019 235.708 627.522 235.088 605.711 233.526C592.925 232.61 580.597 230.648 578.312 229.165C576.03 227.682 574.184 227.682 574.21 229.165ZM411.423 328.167C399.639 332.405 384.843 350.022 384.867 359.783C384.873 362.785 388.095 360.017 392.226 353.46C399.457 341.986 399.593 341.933 400.818 350.129C403.648 369.045 421.924 376.241 434.671 363.455C443.017 355.083 443.15 350.129 435.026 350.129C431.569 350.129 427.879 347.88 426.826 345.131C423.495 336.419 428.321 330.14 438.348 330.14C443.632 330.14 447.956 328.64 447.956 326.808C447.956 322.237 425.591 323.07 411.423 328.167ZM222.116 345.771C243.81 349.422 252.402 353.99 251.286 361.276C250.681 365.224 248.237 368.039 245.856 367.532C239.761 366.24 242.461 376.947 249.32 381.282C253.584 383.973 256.45 383.457 261.216 379.133C264.667 375.998 268.49 374.439 269.712 375.661C273.495 379.456 272.169 373.576 266.972 363.491C259.38 348.766 249.396 343.406 230.509 343.919C221.326 344.169 217.549 345.001 222.116 345.771ZM296.842 394.251C288.662 408.117 280.336 415.439 250.346 435.129C230.253 448.318 211.066 462.214 207.705 466.008C193.929 481.57 194.437 512.583 208.768 530.859C225.235 551.858 269.838 560.69 323.332 553.55C373.502 546.854 394.286 533.891 411.267 498.704C419.922 480.767 418.254 473.727 409.34 490.575L403.445 501.712L401.038 485.678C399.712 476.859 396.159 465.862 393.136 461.238C386.793 451.523 382.555 452.869 387.906 462.897C389.882 466.598 391.496 472.248 391.496 475.457C391.496 483.425 378.37 510.041 374.438 510.041C372.691 510.041 368.713 505.274 365.601 499.447C353.558 476.899 335.036 460.255 315.717 454.621C293.704 448.201 261.857 449.847 245.676 458.243C237.516 462.474 235.042 462.803 236.125 459.512C238.616 451.949 263.199 436.608 280.429 431.867C296.304 427.496 296.46 427.336 285.218 426.976L273.594 426.607L281.897 420.09C287.158 415.962 295.444 413.547 304.511 413.501C314.029 413.451 318.068 412.205 316.573 409.776C315.335 407.767 310.014 406.758 304.753 407.534C299.489 408.307 295.182 408.497 295.182 407.957C295.182 407.414 298.357 400.861 302.233 393.398C312.432 373.772 308.559 374.385 296.842 394.251ZM440.257 382.281C439.321 383.22 431.33 385.982 422.499 388.418C409.49 392.002 408.334 392.852 416.405 392.885C431.224 392.945 454.306 385.383 447.451 382.711C444.432 381.535 441.197 381.341 440.257 382.281ZM225.437 398.109C230.004 400.907 238.224 403.096 243.704 402.973L253.667 402.75L243.704 400.015C238.224 398.509 230.004 396.317 225.437 395.147L217.134 393.022L225.437 398.109ZM488.547 478.928C475.837 485.211 476.189 488.852 488.942 483.022C495.711 479.931 498.677 479.991 502.655 483.306C508.159 487.89 508.849 486.844 505.721 478.665C503.243 472.185 502.154 472.202 488.547 478.928ZM321.087 490.718C331.499 501.162 320.283 524.423 305.653 522.724C298.476 521.891 296.653 519.766 295.829 511.26C295.049 503.191 296.852 499.213 303.75 493.77C314.106 485.598 315.703 485.318 321.087 490.718ZM489.029 496.911C482.659 510.737 457.302 537.173 439.377 548.673C411.712 566.427 386.049 573.493 348.779 573.626C330.928 573.689 309.264 571.96 300.642 569.781C282.93 565.307 280.286 566.45 283.023 577.384C286.105 589.707 302.329 596.773 335.441 600.208C388.321 605.695 426.109 594.728 455.332 565.414C471.941 548.753 495.88 504.954 493.931 494.793C492.954 489.705 492.197 490.032 489.029 496.911ZM252.574 502.228C260.977 509.854 260.662 523.367 252.083 523.367C244.262 523.367 233.87 508.858 236.593 501.739C239.097 495.186 245.015 495.366 252.574 502.228ZM314.727 619.268C319.739 628.659 337.945 643.441 351.542 649.155C367.245 655.754 392.323 653.169 414.744 642.641C442.094 629.802 451.131 621.366 428.029 630.242C402.871 639.903 373.578 638.177 357.793 626.097C350.788 620.74 339.858 616.566 328.855 615.047C311.884 612.705 311.316 612.874 314.727 619.268ZM537.352 637.784C531.168 642.915 400.005 696.549 394.116 696.359C389.935 696.222 380.536 693.334 373.229 689.942L359.945 683.772L377.255 683.526C397.235 683.243 423.203 674.307 445.744 659.969C456.438 653.166 465.95 649.877 475.472 649.698C483.17 649.551 498.438 646.729 509.397 643.428C528.361 637.717 540.354 635.295 537.352 637.784Z" fill="#D32120"/>
</svg>
